<svg width="100" height="66" viewBox="0 0 100 66" fill="none" xmlns="http://www.w3.org/2000/svg">
<g filter="url(#filter0_d_15309_1533)">
<path opacity="0.07" d="M88.7368 0H11.2632C7.14737 0 4 3.14167 4 7.25V50.75C4 54.8583 7.38947 58 11.2632 58H88.7368C92.8526 58 96 54.8583 96 50.75V7.25C96 3.14167 92.6105 0 88.7368 0Z" fill="black"/>
<path d="M88.7367 2.41669C91.3998 2.41669 93.5788 4.59169 93.5788 7.25002V50.75C93.5788 53.4084 91.3998 55.5834 88.7367 55.5834H11.263C8.59985 55.5834 6.4209 53.4084 6.4209 50.75V7.25002C6.4209 4.59169 8.59985 2.41669 11.263 2.41669H88.7367Z" fill="white"/>
<path d="M47.8025 28.9413V36.6747H45.3379V17.583H51.8529C52.6336 17.5698 53.4091 17.7108 54.135 17.9978C54.8608 18.2848 55.5227 18.7121 56.0825 19.2553C56.6128 19.7493 57.0404 20.3427 57.3408 21.0017C57.6412 21.6607 57.8086 22.3723 57.8333 23.0959C57.858 23.8195 57.7396 24.5409 57.4849 25.2187C57.2302 25.8966 56.8442 26.5178 56.3488 27.0467L56.0825 27.327C54.9446 28.4072 53.4242 28.9945 51.8529 28.9558L47.8025 28.9413ZM47.8025 19.9223V26.66H51.9135C52.8262 26.689 53.7075 26.3338 54.3466 25.6837C54.8038 25.208 55.1108 24.6086 55.2294 23.9602C55.348 23.3117 55.273 22.6428 55.0137 22.0365C54.7544 21.4303 54.3223 20.9135 53.7711 20.5505C53.2198 20.1875 52.5739 19.9942 51.9135 19.9948L47.8025 19.9223ZM63.5006 23.18C65.0743 23.1075 66.6141 23.6343 67.8053 24.6614C68.8826 25.7006 69.4564 27.1506 69.3789 28.6465V36.7037H67.0329V34.8525H66.9143C66.4936 35.5468 65.8987 36.1196 65.1883 36.5141C64.478 36.9087 63.6768 37.1115 62.8639 37.1024C61.5369 37.1453 60.2429 36.6851 59.242 35.8143C58.7678 35.4282 58.3877 34.9395 58.1306 34.3852C57.8735 33.8309 57.7461 33.2254 57.7579 32.6147C57.7299 31.9974 57.85 31.3825 58.1082 30.8209C58.3663 30.2593 58.755 29.7674 59.242 29.386C60.4366 28.5285 61.8824 28.0907 63.3529 28.1414C64.6046 28.0931 65.8466 28.3662 66.9603 28.9413V28.4387C66.9685 28.0231 66.8818 27.6111 66.7069 27.2338C66.532 26.8566 66.2734 26.524 65.9507 26.2612C65.3027 25.6732 64.4537 25.355 63.5781 25.3719C62.9421 25.3659 62.3152 25.5219 61.7564 25.8251C61.1976 26.1283 60.7255 26.5687 60.3847 27.1047L58.2179 25.7417C58.8063 24.9002 59.6006 24.223 60.5253 23.7746C61.45 23.3262 62.4743 23.1215 63.5006 23.18ZM60.3847 32.6727C60.3789 32.9857 60.4503 33.2953 60.5925 33.5743C60.7348 33.8533 60.9437 34.093 61.2006 34.2725C61.7405 34.6978 62.4112 34.9226 63.1012 34.9081C64.1398 34.9057 65.1348 34.4972 65.8757 33.7674C66.6141 33.0763 67.0329 32.112 67.0329 31.1018C66.1009 30.4404 64.9684 30.1211 63.8275 30.198C62.9416 30.1632 62.0678 30.4121 61.3338 30.9085C61.0431 31.1026 60.8045 31.365 60.6391 31.6726C60.4736 31.9801 60.3863 32.3236 60.3847 32.6727ZM82.8666 23.6102L74.6593 42.436H72.122L75.2234 35.8433L69.8389 23.6102H72.5094L76.4121 32.9989L80.2107 23.6102H82.8666Z" fill="#5F6368"/>
<path d="M37.8609 27.2703C37.8609 26.5259 37.8028 25.7816 37.6842 25.0469H27.2979V29.2689H33.2319C33.111 29.9398 32.8558 30.5795 32.4814 31.1497C32.107 31.7198 31.6211 32.2087 31.0529 32.5869V35.3274H34.5973C35.675 34.2866 36.5223 33.0318 37.0844 31.644C37.6465 30.2563 37.911 28.7663 37.8609 27.2703Z" fill="#4285F4"/>
<path d="M27.3101 37.9923C29.9886 38.0657 32.5944 37.1177 34.5975 35.3412L31.0482 32.5862C30.1954 33.132 29.2291 33.4765 28.2229 33.5935C27.2166 33.7105 26.1969 33.5969 25.2413 33.2614C24.2856 32.9258 23.4192 32.3772 22.7079 31.6572C21.9966 30.9372 21.4591 30.0647 21.1364 29.1062H17.5V31.9337C18.4099 33.7535 19.8098 35.2844 21.5426 36.3545C23.2753 37.4246 25.2725 37.9917 27.3101 37.9923Z" fill="#34A853"/>
<path d="M21.1389 29.1197C20.6784 27.7598 20.6784 26.2866 21.1389 24.9267V22.0992H17.5025C16.7273 23.6253 16.3232 25.3122 16.3232 27.0232C16.3232 28.7342 16.7273 30.4211 17.5025 31.9472L21.1389 29.1197Z" fill="#FBBC04"/>
<path d="M27.3101 20.3971C28.8765 20.3685 30.3908 20.9592 31.5227 22.0404L34.6701 18.9157C32.6633 17.0355 30.0015 16.01 27.2496 16.0568C25.224 16.0669 23.2409 16.6368 21.52 17.7032C19.7991 18.7696 18.4077 20.2909 17.5 22.0984L21.1364 24.9283C21.5616 23.6235 22.3859 22.4846 23.4933 21.6718C24.6008 20.859 25.9356 20.4132 27.3101 20.3971Z" fill="#EA4335"/>
</g>
<defs>
<filter id="filter0_d_15309_1533" x="0" y="0" width="100" height="66" filterUnits="userSpaceOnUse" color-interpolation-filters="sRGB">
<feFlood flood-opacity="0" result="BackgroundImageFix"/>
<feColorMatrix in="SourceAlpha" type="matrix" values="0 0 0 0 0 0 0 0 0 0 0 0 0 0 0 0 0 0 127 0" result="hardAlpha"/>
<feOffset dy="4"/>
<feGaussianBlur stdDeviation="2"/>
<feComposite in2="hardAlpha" operator="out"/>
<feColorMatrix type="matrix" values="0 0 0 0 0 0 0 0 0 0 0 0 0 0 0 0 0 0 0.25 0"/>
<feBlend mode="normal" in2="BackgroundImageFix" result="effect1_dropShadow_15309_1533"/>
<feBlend mode="normal" in="SourceGraphic" in2="effect1_dropShadow_15309_1533" result="shape"/>
</filter>
</defs>
</svg>
